<?xml version="1.0" encoding="UTF-8" standalone="no"?>
<!-- Created with Inkscape (http://www.inkscape.org/) -->

<svg
   xmlns:dc="http://purl.org/dc/elements/1.1/"
   xmlns:cc="http://creativecommons.org/ns#"
   xmlns:rdf="http://www.w3.org/1999/02/22-rdf-syntax-ns#"
   xmlns:svg="http://www.w3.org/2000/svg"
   xmlns="http://www.w3.org/2000/svg"
   xmlns:sodipodi="http://sodipodi.sourceforge.net/DTD/sodipodi-0.dtd"
   xmlns:inkscape="http://www.inkscape.org/namespaces/inkscape"
   width="100"
   height="100"
   id="svg3669"
   version="1.1"
   inkscape:version="0.47 r22583"
   sodipodi:docname="QBishop.svg">
  <defs
     id="defs3671">
    <inkscape:perspective
       sodipodi:type="inkscape:persp3d"
       inkscape:vp_x="0 : 526.18109 : 1"
       inkscape:vp_y="0 : 1000 : 0"
       inkscape:vp_z="744.09448 : 526.18109 : 1"
       inkscape:persp3d-origin="372.04724 : 350.78739 : 1"
       id="perspective3677" />
    <inkscape:perspective
       id="perspective3664"
       inkscape:persp3d-origin="0.5 : 0.33333333 : 1"
       inkscape:vp_z="1 : 0.5 : 1"
       inkscape:vp_y="0 : 1000 : 0"
       inkscape:vp_x="0 : 0.5 : 1"
       sodipodi:type="inkscape:persp3d" />
    <inkscape:perspective
       id="perspective3808"
       inkscape:persp3d-origin="0.5 : 0.33333333 : 1"
       inkscape:vp_z="1 : 0.5 : 1"
       inkscape:vp_y="0 : 1000 : 0"
       inkscape:vp_x="0 : 0.5 : 1"
       sodipodi:type="inkscape:persp3d" />
    <inkscape:perspective
       id="perspective3821"
       inkscape:persp3d-origin="0.5 : 0.33333333 : 1"
       inkscape:vp_z="1 : 0.5 : 1"
       inkscape:vp_y="0 : 1000 : 0"
       inkscape:vp_x="0 : 0.5 : 1"
       sodipodi:type="inkscape:persp3d" />
    <inkscape:perspective
       id="perspective3834"
       inkscape:persp3d-origin="0.5 : 0.33333333 : 1"
       inkscape:vp_z="1 : 0.5 : 1"
       inkscape:vp_y="0 : 1000 : 0"
       inkscape:vp_x="0 : 0.5 : 1"
       sodipodi:type="inkscape:persp3d" />
    <inkscape:perspective
       id="perspective3847"
       inkscape:persp3d-origin="0.5 : 0.33333333 : 1"
       inkscape:vp_z="1 : 0.5 : 1"
       inkscape:vp_y="0 : 1000 : 0"
       inkscape:vp_x="0 : 0.5 : 1"
       sodipodi:type="inkscape:persp3d" />
  </defs>
  <sodipodi:namedview
     id="base"
     pagecolor="#ffffff"
     bordercolor="#666666"
     borderopacity="1.0"
     inkscape:pageopacity="0.0"
     inkscape:pageshadow="2"
     inkscape:zoom="5.6"
     inkscape:cx="42.270969"
     inkscape:cy="45.009413"
     inkscape:document-units="px"
     inkscape:current-layer="layer1"
     showgrid="false"
     inkscape:window-width="1280"
     inkscape:window-height="916"
     inkscape:window-x="-4"
     inkscape:window-y="43"
     inkscape:window-maximized="1"
     inkscape:snap-nodes="true" />
  <metadata
     id="metadata3674">
    <rdf:RDF>
      <cc:Work
         rdf:about="">
        <dc:format>image/svg+xml</dc:format>
        <dc:type
           rdf:resource="http://purl.org/dc/dcmitype/StillImage" />
        <dc:title />
      </cc:Work>
    </rdf:RDF>
  </metadata>
  <g
     inkscape:label="Layer 1"
     inkscape:groupmode="layer"
     id="layer1"
     style="display:inline"
     transform="translate(0,-952.36219)">
    <path
       id="path558"
       d="m 25.445216,1046.1891 48.883605,0 -0.399354,-1.8527 -1.435184,-1.4635 -0.199678,-0.1527 0,-0.1908 -0.137272,-0.756 -0.07488,-0.1909 0.174718,-0.1654 c 2.508452,-2.8072 3.681559,-5.5196 3.494361,-8.0646 -0.212158,-2.8474 -4.143313,-8.3905 -5.34138,-10.0213 l -0.02496,-0.5981 0.08687,-0.1018 0.14976,-0.064 1.559981,-1.3914 c -0.336954,-1.1059 -1.946857,-1.1931 -1.959337,-1.1931 l -0.623993,0 -0.212158,-0.2417 c -1.72222,-1.7339 -10.682759,-16.0498 -10.969795,-21.05285 l -0.02496,-0.52168 5.815614,0 c 0.361917,-0.0957 1.896938,-0.65981 1.7347,-1.59836 -0.174718,-1.32021 -1.847018,-1.94057 -2.246374,-2.02011 l -3.881235,0 0.01205,-0.51537 c 0.03695,-2.08377 0.1248,-6.07633 0.1248,-6.21186 l 0,-0.48992 0.748791,0 1.759661,-1.22481 -1.809579,-1.25663 -2.021738,0 1.472623,-0.8666 c 4.180754,-2.4897 5.553537,-7.38894 3.893716,-9.79912 -2.171496,-3.15715 -4.492748,-5.281 -8.024549,-8.50178 -1.210547,-1.10582 -2.58333,-2.35417 -4.130833,-3.80995 l -0.499195,-0.4772 0.811191,-0.25451 c 1.272947,-0.41357 2.021737,-1.26426 2.021737,-2.32236 0,-1.37561 -1.547503,-2.33828 -3.781397,-2.33828 -2.096616,0 -3.294682,0.85132 -3.294682,2.33828 0,1.16945 0.574074,1.94887 1.722221,2.32236 l 0.798711,0.25451 -0.499195,0.4772 c -0.761272,0.7158 -1.709741,1.59894 -2.63325,2.44962 -0.960949,0.89904 -1.909419,1.77391 -2.558372,2.39426 l 4.030995,5.62269 0.112312,1.21717 -1.397743,0.45812 -0.07488,0 c -1.385263,0 -2.021738,-0.73998 -2.196456,-1.18537 l -2.720608,-3.82523 -1.073267,1.00212 c -1.385265,1.29608 -2.845408,2.6405 -3.893717,4.17517 -1.609902,2.36246 -0.1248,7.25343 4.155793,9.79849 l 1.460143,0.86723 -2.009257,0 -1.80958,1.25662 1.547503,1.21654 0.411835,0 0.187198,0.25451 c 0.08687,0.10816 0.199678,0.26723 0.411836,6.43455 l 0.02496,0.52174 -2.982686,0 c -0.399356,0.0636 -2.171496,0.60442 -2.358694,1.89292 -0.14976,0.96198 1.522543,1.62249 1.896939,1.72551 l 4.255632,0 0.137272,0.40719 c 1.946857,6.10819 -3.456921,12.66999 -7.787433,17.95099 -0.73631,0.8984 -1.435183,1.7414 -2.059175,2.545 l -0.08687,0.1019 -0.137272,0.07 -0.686393,0.4708 -0.237116,0.2673 -0.636473,0 c -0.01205,0 -1.510063,0.1208 -1.859499,1.2247 l 1.110707,1.2884 0.89855,0.064 -0.199678,0.579 -0.174718,0.5408 -0.08687,0.439 -0.212158,0 -1.335345,1.5907 c -1.909418,2.2588 -4.068433,4.8274 -4.293071,7.3565 -0.311997,3.7222 2.034217,6.9354 3.269722,8.351 l 0.449275,0 -0.112312,0.5727 -0.06289,0.5344 -0.02496,0.4963 -0.661432,0 -1.297905,1.2968 -0.374397,1.8928 z m 50.543426,1.0181 -52.153327,0 0,-0.5091 c 0,-0.07 0.01205,-1.7891 0.474234,-2.7117 0.499195,-0.9704 1.859498,-1.8216 1.921898,-1.8535 l 0.01205,-0.01 0.02496,-0.1019 c -1.310385,-1.4391 -3.943635,-4.931 -3.594199,-9.0349 0.237116,-2.7436 2.49597,-5.4159 4.492748,-7.7784 l 1.497583,-1.8134 0.01299,-0.089 -0.998389,-0.5789 -0.686393,-1.7021 c 0.424316,-1.4074 2.146536,-1.9482 3.144925,-2.0361 l 0.723832,-0.4708 c 0.599033,-0.7711 1.272945,-1.5907 1.996778,-2.4572 4.118353,-5.0106 9.222615,-11.2224 7.737512,-16.87699 l -3.144924,0 c -0.711353,-0.0638 -3.544281,-1.1052 -3.282203,-2.83141 0.287036,-1.93231 3.070045,-2.81545 3.881235,-2.81545 l 1.422704,0 c -0.07488,-1.88462 -0.187197,-4.45385 -0.262077,-5.32872 -1.347825,-0.31177 -2.283814,-1.15291 -2.283814,-2.11559 0,-0.89077 0.773751,-1.65428 1.884458,-2.02777 -3.718997,-2.76776 -5.466177,-7.51621 -3.544279,-10.29987 1.110707,-1.62247 2.59581,-3.00635 4.043473,-4.34251 l 1.82206,-1.74973 0.786232,-0.79532 4.018514,5.67866 0.661432,0.4263 0.06289,0 -0.112327,-0.19088 -0.01205,0 -4.43035,-6.15587 0.249598,-0.22906 c 0.661433,-0.62989 1.72222,-1.6142 2.820448,-2.63222 l 2.171496,-2.02015 c -0.94847,-0.48356 -1.834539,-1.36033 -1.834539,-2.91919 0,-2.03604 1.909417,-3.34802 4.879624,-3.34802 3.107484,0 5.366338,1.40742 5.366338,3.34802 0,1.22482 -0.78623,2.27465 -2.121575,2.91919 1.335345,1.27254 2.558372,2.37772 3.644119,3.37221 3.569239,3.26849 5.940412,5.42417 8.161826,8.66912 1.772142,2.56096 0.661433,7.38067 -3.269722,10.29922 1.110708,0.3754 1.871979,1.13765 1.871979,2.02842 0,1.04156 -1.060789,1.91643 -2.508452,2.1633 -0.02496,1.1211 -0.08685,4.07973 -0.09984,5.28101 l 2.346214,0 c 0.686391,0 3.456921,0.9143 3.731477,2.94277 0.287037,1.70198 -2.408613,2.65639 -3.119964,2.70406 l -0.08785,0 -4.243152,0 c 0.786231,4.90687 8.373985,17.37007 10.458123,19.80377 1.023347,0.096 2.820446,0.6299 3.219803,2.0043 0.324476,0.9779 -0.923509,1.7891 -1.697262,2.1792 1.672302,2.2905 5.079303,7.3011 5.291461,10.1325 0.199678,2.6882 -0.998389,5.5355 -3.569239,8.4464 l 0.112312,0.6045 1.559983,1.702 c 0.386874,0.8507 0.524152,2.545 0.524152,2.6163 l 0.02496,0.5345 z"
       style="fill:#221f1f;stroke:#000000;stroke-width:1.24925888;stroke-linecap:butt;stroke-linejoin:miter;stroke-miterlimit:4;stroke-opacity:1;stroke-dasharray:none" />
  </g>
</svg>
