<?xml version="1.0" encoding="UTF-8" standalone="no"?>
<!-- Created with Inkscape (http://www.inkscape.org/) -->

<svg
   xmlns:dc="http://purl.org/dc/elements/1.1/"
   xmlns:cc="http://creativecommons.org/ns#"
   xmlns:rdf="http://www.w3.org/1999/02/22-rdf-syntax-ns#"
   xmlns:svg="http://www.w3.org/2000/svg"
   xmlns="http://www.w3.org/2000/svg"
   xmlns:sodipodi="http://sodipodi.sourceforge.net/DTD/sodipodi-0.dtd"
   xmlns:inkscape="http://www.inkscape.org/namespaces/inkscape"
   width="100"
   height="100"
   id="svg3669"
   version="1.1"
   inkscape:version="0.47 r22583"
   sodipodi:docname="QKing.svg">
  <defs
     id="defs3671">
    <inkscape:perspective
       sodipodi:type="inkscape:persp3d"
       inkscape:vp_x="0 : 526.18109 : 1"
       inkscape:vp_y="0 : 1000 : 0"
       inkscape:vp_z="744.09448 : 526.18109 : 1"
       inkscape:persp3d-origin="372.04724 : 350.78739 : 1"
       id="perspective3677" />
    <inkscape:perspective
       id="perspective3664"
       inkscape:persp3d-origin="0.5 : 0.33333333 : 1"
       inkscape:vp_z="1 : 0.5 : 1"
       inkscape:vp_y="0 : 1000 : 0"
       inkscape:vp_x="0 : 0.5 : 1"
       sodipodi:type="inkscape:persp3d" />
    <inkscape:perspective
       id="perspective3808"
       inkscape:persp3d-origin="0.5 : 0.33333333 : 1"
       inkscape:vp_z="1 : 0.5 : 1"
       inkscape:vp_y="0 : 1000 : 0"
       inkscape:vp_x="0 : 0.5 : 1"
       sodipodi:type="inkscape:persp3d" />
    <inkscape:perspective
       id="perspective3821"
       inkscape:persp3d-origin="0.5 : 0.33333333 : 1"
       inkscape:vp_z="1 : 0.5 : 1"
       inkscape:vp_y="0 : 1000 : 0"
       inkscape:vp_x="0 : 0.5 : 1"
       sodipodi:type="inkscape:persp3d" />
    <inkscape:perspective
       id="perspective3834"
       inkscape:persp3d-origin="0.5 : 0.33333333 : 1"
       inkscape:vp_z="1 : 0.5 : 1"
       inkscape:vp_y="0 : 1000 : 0"
       inkscape:vp_x="0 : 0.5 : 1"
       sodipodi:type="inkscape:persp3d" />
    <inkscape:perspective
       id="perspective3847"
       inkscape:persp3d-origin="0.5 : 0.33333333 : 1"
       inkscape:vp_z="1 : 0.5 : 1"
       inkscape:vp_y="0 : 1000 : 0"
       inkscape:vp_x="0 : 0.5 : 1"
       sodipodi:type="inkscape:persp3d" />
    <inkscape:perspective
       id="perspective3864"
       inkscape:persp3d-origin="0.5 : 0.33333333 : 1"
       inkscape:vp_z="1 : 0.5 : 1"
       inkscape:vp_y="0 : 1000 : 0"
       inkscape:vp_x="0 : 0.5 : 1"
       sodipodi:type="inkscape:persp3d" />
  </defs>
  <sodipodi:namedview
     id="base"
     pagecolor="#ffffff"
     bordercolor="#666666"
     borderopacity="1.0"
     inkscape:pageopacity="0.0"
     inkscape:pageshadow="2"
     inkscape:zoom="5.6"
     inkscape:cx="42.270969"
     inkscape:cy="45.009413"
     inkscape:document-units="px"
     inkscape:current-layer="layer1"
     showgrid="false"
     inkscape:window-width="1280"
     inkscape:window-height="916"
     inkscape:window-x="-4"
     inkscape:window-y="43"
     inkscape:window-maximized="1" />
  <metadata
     id="metadata3674">
    <rdf:RDF>
      <cc:Work
         rdf:about="">
        <dc:format>image/svg+xml</dc:format>
        <dc:type
           rdf:resource="http://purl.org/dc/dcmitype/StillImage" />
        <dc:title />
      </cc:Work>
    </rdf:RDF>
  </metadata>
  <g
     inkscape:label="Layer 1"
     inkscape:groupmode="layer"
     id="layer1"
     style="display:inline"
     transform="translate(0,-952.36219)">
    <path
       id="path548"
       d="m 29.494986,1046.4132 40.993617,0 -0.326489,-1.2902 -1.209931,-1.0741 -0.211258,-0.1465 0.0096,-0.2092 -0.04802,-0.6905 -0.0288,-0.1674 0.134436,-0.1465 c 1.661255,-1.6808 2.37185,-3.536 2.199002,-5.6632 -0.249668,-2.8177 -2.611915,-5.8029 -3.994693,-7.3302 l -0.115232,-0.1186 0.0096,-0.1116 -0.172847,-0.3487 -0.03841,-0.4324 0.393708,-0.028 0.451324,-0.1814 0.614568,-0.3835 0.134436,-0.5092 c -0.297681,-0.8509 -1.411585,-0.8788 -1.421189,-0.8788 l -0.758607,0 -0.163244,-0.272 -0.03841,-0.3696 -0.0096,-0.098 c -0.720197,-1.1858 -1.421189,-2.2947 -2.112578,-3.3479 -3.418536,-5.2796 -6.35694,-9.841 -7.394023,-20.6235 l -0.0096,-0.098 0.03842,-0.084 0.307284,-0.9905 0.04802,-0.4114 0.566554,0 c 2.199002,0 3.76423,0 4.109925,-0.01 0.297681,-0.084 1.690063,-0.67649 1.555626,-1.70174 -0.172848,-1.40187 -1.680461,-2.04353 -1.997347,-2.12025 l -2.477478,0 -0.576157,-8.78089 0.115231,-0.11856 c 0.07682,-0.0697 6.731442,-7.19071 7.768526,-8.40428 0.873839,-1.03223 1.363573,-2.0784 1.363573,-2.95719 0,-2.34343 -2.563902,-4.24746 -5.713564,-4.24746 l -4.215553,0 0,-1.59716 -1.200329,-0.89971 -12.137721,0 -1.209931,0.89971 0,1.59716 -4.196348,0 c -3.149662,0 -5.713564,1.90403 -5.713564,4.24746 0,1.1229 0.7298,2.22487 1.353971,2.95022 1.037084,1.22751 7.787731,8.53678 7.854949,8.61351 l 0.115232,0.12553 -0.662582,8.57166 -2.448669,0 c -0.345695,0.0628 -1.939732,0.62073 -2.093373,1.99471 -0.14404,1.0392 1.373176,1.72968 1.690062,1.83428 0.364899,0 2.04536,0 4.071515,0 l 0.374501,0 0.172848,0.2372 0.259271,0.3627 0.18245,0.2232 -0.0096,0.1255 c -1.027481,11.8636 -3.850653,16.404 -7.422831,22.144 -0.489734,0.7742 -0.98907,1.5833 -1.507612,2.4272 l 0.0192,0.272 -0.05762,0.048 -0.115232,0.2442 -0.192052,0.2092 -0.537747,0 c -0.0096,0 -1.142713,0.028 -1.421189,0.8718 l 0.192053,0.5789 0.54735,0.3138 0.384105,0.077 0.05762,0.2859 0.0096,0.2372 0.0288,0.084 -0.134436,0.3906 -0.03841,0.055 -0.662581,0.7463 c -1.603639,1.7994 -3.610588,4.0452 -3.812243,6.1933 -0.230464,2.2598 0.614568,4.5823 2.256617,6.2422 l 0.537748,0 -0.18245,0.5441 -0.172847,0.4812 -0.14404,0.3069 -0.374502,0 -1.13311,0.9764 -0.307285,1.3251 z m 42.309177,0.8858 -43.557518,0 0.0096,-0.4394 c 0,-0.1465 0.0096,-1.4019 0.422516,-2.1133 0.393708,-0.6905 1.411586,-1.2833 1.632447,-1.4158 -1.824499,-1.8343 -2.77516,-4.38 -2.515889,-6.8629 0.230463,-2.3714 2.333438,-4.7218 4.013899,-6.6118 l 0.58576,-0.6765 -0.739403,-0.4883 -0.40331,-1.3391 c 0.336092,-0.9834 1.440394,-1.4228 2.256618,-1.5134 l -0.0096,-0.062 0.06722,-0.098 c 0.547349,-0.8858 1.065891,-1.7297 1.565228,-2.5457 3.524164,-5.6355 6.289721,-10.0921 7.317201,-21.6977 l -0.115231,-0.1395 c -1.632446,0 -3.716216,0 -3.831448,0 l -0.04802,-0.01 c -0.576158,-0.048 -2.95761,-1.109 -2.736749,-2.78984 0.230463,-1.93193 2.583106,-2.80375 3.274495,-2.80375 l 1.31556,0 0.595364,-7.44179 c -0.931455,-1.00432 -6.779455,-7.35809 -7.768526,-8.51586 -0.700992,-0.82997 -1.546023,-2.08537 -1.546023,-3.4175 0,-2.83165 3.111251,-5.13323 6.9427,-5.13323 l 2.976814,0 0,-0.7114 c 0,-0.99038 1.0947,-1.78547 2.429465,-1.78547 l 12.137721,0 c 1.334766,0 2.419862,0.79509 2.419862,1.78547 l 0,0.7114 2.99602,0 c 3.812243,0 6.923495,2.30158 6.923495,5.13323 0,1.33213 -0.835429,2.59452 -1.53642,3.42448 -0.979469,1.15079 -6.760251,7.32322 -7.682102,8.30662 l 0.499336,7.64405 1.382778,0 c 0.566555,0 2.899994,0.90669 3.14006,2.92233 0.22086,1.66686 -2.006949,2.62236 -2.611915,2.67126 l -0.04802,0.01 c -0.09602,0 -2.054963,0 -3.677807,0 l -0.259271,0.7184 c 1.027482,10.5663 3.917872,15.044 7.259587,20.219 0.710594,1.0951 1.440394,2.2249 2.189399,3.4455 l 0.0288,0.07 0.0096,0.077 c 0.835429,0.07 1.997347,0.5022 2.362247,1.5344 l -0.393708,1.3181 -0.969865,0.5859 0.0096,0.042 c 1.469202,1.625 3.841051,4.7008 4.100322,7.6719 0.192053,2.2737 -0.54735,4.2684 -2.275823,6.0888 l 0.03841,0.4603 1.31556,1.2763 c 0.355298,0.6556 0.451323,1.8901 0.470529,2.0296 l 0.0384,0.4673 z"
       style="fill:#221f1f;stroke:#000000;stroke-width:1.12651753;stroke-miterlimit:4;stroke-opacity:1;stroke-dasharray:none" />
    <path
       id="path550"
       d="m 47.509866,965.57799 c 1.747432,0.59246 3.830909,0.59246 5.587943,0.0141 l -0.192025,-0.13401 c -1.910655,-1.43179 -2.611548,-3.08223 -1.593812,-3.85102 l 1.27697,-0.35971 c 1.13295,0 2.621148,0.59952 3.90772,1.55169 l 0.15362,0.11991 c 0.37445,-0.65595 0.566475,-1.34716 0.566475,-2.05953 0,-0.73352 -0.201626,-1.46 -0.595279,-2.10889 l -0.07681,0.0494 c -1.267369,0.95218 -2.765168,1.5517 -3.888518,1.5517 l -1.286571,-0.35971 c -1.008134,-0.76175 -0.316842,-2.41924 1.593812,-3.85103 l 0.05761,-0.0494 c -1.670622,-0.53604 -3.667688,-0.54309 -5.357513,-0.007 l 0.144019,0.11285 c 1.910655,1.43884 2.592345,3.09633 1.584211,3.85807 l -1.267369,0.35266 c -1.13295,0 -2.63075,-0.59246 -3.90772,-1.55169 l -0.163221,-0.11991 c -0.393653,0.663 -0.595279,1.38948 -0.595279,2.123 0,0.69827 0.182424,1.38242 0.52807,2.01015 l 0.09601,-0.0705 c 1.27697,-0.95217 2.765168,-1.55169 3.898118,-1.55169 l 1.27697,0.35971 c 1.017736,0.76879 0.326444,2.41923 -1.593812,3.86513 l -0.15362,0.1058 z m 2.813174,1.3542 c -1.478597,0 -2.918788,-0.31034 -4.186157,-0.88164 l -0.720096,-0.3315 0.652887,-0.39498 0.729697,-0.48667 c 1.517002,-1.14261 1.958661,-2.31343 1.584211,-2.60261 l -0.403254,-0.0917 c -0.652887,0 -1.843445,0.40203 -3.024402,1.28367 l -0.643286,0.52194 -0.556874,0.50782 -0.441659,-0.56425 c -0.700893,-0.90986 -1.075343,-1.96078 -1.075343,-3.03286 0,-1.12145 0.403254,-2.21469 1.171356,-3.15276 l 0.460861,-0.57836 0.547273,0.53604 0.67209,0.5572 c 1.517002,1.14261 3.072409,1.47411 3.427656,1.20609 0.37445,-0.28212 -0.06721,-1.45295 -1.584211,-2.60261 l -0.720096,-0.48667 -0.720096,-0.40203 0.787305,-0.33855 c 1.219362,-0.53604 2.63075,-0.81111 4.042138,-0.81111 1.449793,0 2.841978,0.27507 4.070942,0.81111 l 0.729697,0.3315 -0.652887,0.40203 -0.633684,0.43729 c -1.526604,1.13556 -1.958661,2.31344 -1.584211,2.59556 0.355247,0.26802 1.910654,-0.0564 3.418055,-1.19198 l 0.60488,-0.49372 0.547273,-0.50783 0.45126,0.55015 c 0.758501,0.94512 1.152153,2.03131 1.152153,3.13865 0,1.08619 -0.384051,2.15827 -1.123349,3.08929 l -0.460861,0.59246 -0.547273,-0.53604 -0.67209,-0.57836 c -1.517002,-1.13556 -3.072409,-1.46705 -3.427656,-1.19198 -0.37445,0.28213 0.06721,1.46 1.584211,2.60261 l 0.768102,0.50078 0.662488,0.40203 -0.739298,0.33855 c -1.238565,0.5572 -2.669155,0.85343 -4.147752,0.85343 z"
       style="fill:#221f1f;stroke:#000000;stroke-width:1.13277256;stroke-miterlimit:4;stroke-opacity:1;stroke-dasharray:none" />
  </g>
</svg>
