<?xml version="1.0" encoding="UTF-8" standalone="no"?>
<!-- Created with Inkscape (http://www.inkscape.org/) -->

<svg
   xmlns:dc="http://purl.org/dc/elements/1.1/"
   xmlns:cc="http://creativecommons.org/ns#"
   xmlns:rdf="http://www.w3.org/1999/02/22-rdf-syntax-ns#"
   xmlns:svg="http://www.w3.org/2000/svg"
   xmlns="http://www.w3.org/2000/svg"
   xmlns:sodipodi="http://sodipodi.sourceforge.net/DTD/sodipodi-0.dtd"
   xmlns:inkscape="http://www.inkscape.org/namespaces/inkscape"
   width="100"
   height="100"
   id="svg3669"
   version="1.1"
   inkscape:version="0.47 r22583"
   sodipodi:docname="QKnight.svg">
  <defs
     id="defs3671">
    <inkscape:perspective
       sodipodi:type="inkscape:persp3d"
       inkscape:vp_x="0 : 526.18109 : 1"
       inkscape:vp_y="0 : 1000 : 0"
       inkscape:vp_z="744.09448 : 526.18109 : 1"
       inkscape:persp3d-origin="372.04724 : 350.78739 : 1"
       id="perspective3677" />
    <inkscape:perspective
       id="perspective3664"
       inkscape:persp3d-origin="0.5 : 0.33333333 : 1"
       inkscape:vp_z="1 : 0.5 : 1"
       inkscape:vp_y="0 : 1000 : 0"
       inkscape:vp_x="0 : 0.5 : 1"
       sodipodi:type="inkscape:persp3d" />
    <inkscape:perspective
       id="perspective3808"
       inkscape:persp3d-origin="0.5 : 0.33333333 : 1"
       inkscape:vp_z="1 : 0.5 : 1"
       inkscape:vp_y="0 : 1000 : 0"
       inkscape:vp_x="0 : 0.5 : 1"
       sodipodi:type="inkscape:persp3d" />
    <inkscape:perspective
       id="perspective3821"
       inkscape:persp3d-origin="0.5 : 0.33333333 : 1"
       inkscape:vp_z="1 : 0.5 : 1"
       inkscape:vp_y="0 : 1000 : 0"
       inkscape:vp_x="0 : 0.5 : 1"
       sodipodi:type="inkscape:persp3d" />
    <inkscape:perspective
       id="perspective3834"
       inkscape:persp3d-origin="0.5 : 0.33333333 : 1"
       inkscape:vp_z="1 : 0.5 : 1"
       inkscape:vp_y="0 : 1000 : 0"
       inkscape:vp_x="0 : 0.5 : 1"
       sodipodi:type="inkscape:persp3d" />
  </defs>
  <sodipodi:namedview
     id="base"
     pagecolor="#ffffff"
     bordercolor="#666666"
     borderopacity="1.0"
     inkscape:pageopacity="0.0"
     inkscape:pageshadow="2"
     inkscape:zoom="5.6"
     inkscape:cx="42.270969"
     inkscape:cy="45.009413"
     inkscape:document-units="px"
     inkscape:current-layer="layer1"
     showgrid="false"
     inkscape:window-width="1280"
     inkscape:window-height="916"
     inkscape:window-x="-4"
     inkscape:window-y="43"
     inkscape:window-maximized="1" />
  <metadata
     id="metadata3674">
    <rdf:RDF>
      <cc:Work
         rdf:about="">
        <dc:format>image/svg+xml</dc:format>
        <dc:type
           rdf:resource="http://purl.org/dc/dcmitype/StillImage" />
        <dc:title />
      </cc:Work>
    </rdf:RDF>
  </metadata>
  <g
     inkscape:label="Layer 1"
     inkscape:groupmode="layer"
     id="layer1"
     style="display:inline"
     transform="translate(0,-952.36219)">
    <path
       id="path566"
       d="m 23.280729,1046.2045 44.696975,0 -0.396824,-1.8552 -1.451612,-1.544 -0.135756,-0.097 -0.06263,-0.1381 -0.323726,-0.628 -0.438594,-0.7766 0.741511,0 c 1.994664,-2.3562 2.86145,-4.9618 2.642132,-7.9814 -0.271513,-3.7872 -2.85099,-7.7827 -4.50102,-9.9741 l -0.292396,0 -0.03092,-0.5453 -0.0518,-0.4418 -0.167084,-0.6626 1.023435,0 0.710104,-0.5245 0.167083,-0.7847 c -0.334166,-1.2251 -1.65003,-1.2597 -1.660473,-1.2597 l -0.678776,0 -0.01004,-0.5591 -0.09398,-0.5797 -0.198412,-0.6695 0.261067,0 1.869336,-12.3125 c -8.250143,-5.59067 -16.886681,-15.87534 -16.562941,-25.57336 0.03092,-1.22511 0.835458,-1.77727 1.618694,-1.77727 0.731072,0 1.524709,0.52455 1.566488,1.48393 0.02088,0.49005 0.355053,4.80588 4.876975,4.80588 l 2.067764,-0.24848 c 3.822211,-0.85446 7.164042,-0.92349 9.545094,-0.16565 1.441165,0.44863 2.245296,0.96628 3.038969,1.47565 l 1.670929,0.958 c 0.668337,-0.56596 2.203522,-2.00227 3.373149,-3.88307 1.399403,-2.24316 2.23485,-3.59802 -1.388945,-5.61685 -3.811783,-2.13066 -8.59477,-6.92825 -10.22391,-10.26744 -1.441159,-2.93337 -3.655119,-4.06322 -4.3026,-4.3393 l -0.490807,-0.21396 0.167082,-0.42793 0.34461,-0.75922 c 0.522135,-1.02702 0.971221,-1.92428 -1.04432,-3.49449 -1.106985,0.6833 -1.984213,1.36314 -2.757015,2.09683 l -0.281953,0.27609 -0.417708,-0.11043 c -1.587366,-0.41413 -3.498471,-0.64189 -5.524455,-0.64189 -5.378258,0 -11.0176,1.49221 -15.059125,3.97693 -7.539998,4.65058 -12.05147,14.99532 -12.364767,28.36866 -0.250625,10.67327 2.37061,21.91527 6.15106,26.39337 l 0.501248,0 -0.187967,0.6763 -0.18797,0.6834 -0.08354,0.4555 -0.553463,0 c -0.04177,0 -1.347175,0 -1.702252,1.2507 l 0.88768,1.3113 0.553463,0.145 -0.08354,0.4555 -0.03175,0.4762 0.03175,0.5798 -0.334167,0 -0.553463,0.7338 c -1.838007,2.4936 -4.177282,5.5912 -4.407037,8.5674 -0.27151,3.1405 0.710104,6.3497 2.621251,8.6543 l 0.637005,0 -0.334167,0.7503 -0.313281,0.6488 -0.146197,0.3659 -0.229739,0 -1.336733,1.3721 -0.365495,1.9063 z m 46.106801,1.1044 -47.453976,0 0,-0.5523 c 0,-0.2001 0.02088,-1.9069 0.480364,-2.8732 0.407266,-0.8193 1.399389,-1.5613 1.775351,-1.829 l 0.104429,-0.2485 c -2.08864,-2.5027 -3.164288,-5.9792 -2.871884,-9.3702 0.261067,-3.244 2.673465,-6.4713 4.626349,-9.0679 l 0.637006,-0.88 0,-0.076 c -0.77276,-0.4141 -1.618694,-1.3204 -1.284511,-2.4247 0.355051,-1.2679 1.503824,-1.8636 2.412381,-2.0361 l 0.04177,-0.097 c -3.999747,-4.6761 -6.694096,-15.9961 -6.433021,-27.08281 0.18797,-8.0588 2.109535,-22.57994 12.907821,-29.22313 4.250388,-2.63105 10.182133,-4.19298 15.842361,-4.19298 1.984205,0 3.884876,0.18636 5.514013,0.57977 0.866786,-0.79373 1.879778,-1.51913 3.122526,-2.26109 l 0.417708,-0.26228 0.396822,0.28298 c 3.195616,2.27008 2.422824,3.81405 1.796228,5.03916 l -0.125312,0.24848 c 1.138312,0.59357 3.080755,1.94153 4.417483,4.65885 1.514267,3.12316 6.171944,7.77443 9.733071,9.76704 4.60548,2.56272 3.258286,4.73686 1.827567,7.03177 -1.639577,2.63174 -3.884861,4.38347 -3.978868,4.46078 l -0.334157,0.26918 -0.417705,-0.17946 c -1.033871,-0.42103 -1.681364,-0.85378 -2.318398,-1.25961 -0.772755,-0.49004 -1.430707,-0.92281 -2.673448,-1.31208 -2.119986,-0.6695 -5.200732,-0.60047 -8.720098,0.20016 l -2.433273,0.28298 c -4.688999,0 -6.098839,-3.67601 -6.203266,-5.85843 l -0.240181,-0.42102 -0.292396,0.69848 c -0.313281,9.43091 8.271028,19.50858 16.354078,24.89206 l 0.292395,0.1795 -2.015549,13.3299 0.05263,0.2346 c 0.929441,0.1933 2.00509,0.7938 2.360176,2.0361 l -0.459479,1.7863 -1.12788,0.7765 c 1.712694,2.2603 4.469702,6.4886 4.762109,10.569 0.229739,3.2267 -0.741427,6.1518 -2.882319,8.6889 l 0.125311,0.2623 c 0.365496,0.2761 1.336712,1.0871 1.712679,1.8981 0.386365,0.9055 0.511688,2.6828 0.511688,2.7518 l 0.04171,0.5867 z"
       style="fill:#221f1f;stroke:#000000;stroke-width:1.09899545;stroke-opacity:1" />
  </g>
</svg>
