<?xml version="1.0" encoding="UTF-8" standalone="no"?>
<!-- Created with Inkscape (http://www.inkscape.org/) -->

<svg
   xmlns:dc="http://purl.org/dc/elements/1.1/"
   xmlns:cc="http://creativecommons.org/ns#"
   xmlns:rdf="http://www.w3.org/1999/02/22-rdf-syntax-ns#"
   xmlns:svg="http://www.w3.org/2000/svg"
   xmlns="http://www.w3.org/2000/svg"
   xmlns:sodipodi="http://sodipodi.sourceforge.net/DTD/sodipodi-0.dtd"
   xmlns:inkscape="http://www.inkscape.org/namespaces/inkscape"
   width="100"
   height="100"
   id="svg3669"
   version="1.1"
   inkscape:version="0.47 r22583"
   sodipodi:docname="QPawn.svg">
  <defs
     id="defs3671">
    <inkscape:perspective
       sodipodi:type="inkscape:persp3d"
       inkscape:vp_x="0 : 526.18109 : 1"
       inkscape:vp_y="0 : 1000 : 0"
       inkscape:vp_z="744.09448 : 526.18109 : 1"
       inkscape:persp3d-origin="372.04724 : 350.78739 : 1"
       id="perspective3677" />
    <inkscape:perspective
       id="perspective3664"
       inkscape:persp3d-origin="0.5 : 0.33333333 : 1"
       inkscape:vp_z="1 : 0.5 : 1"
       inkscape:vp_y="0 : 1000 : 0"
       inkscape:vp_x="0 : 0.5 : 1"
       sodipodi:type="inkscape:persp3d" />
    <inkscape:perspective
       id="perspective3808"
       inkscape:persp3d-origin="0.5 : 0.33333333 : 1"
       inkscape:vp_z="1 : 0.5 : 1"
       inkscape:vp_y="0 : 1000 : 0"
       inkscape:vp_x="0 : 0.5 : 1"
       sodipodi:type="inkscape:persp3d" />
  </defs>
  <sodipodi:namedview
     id="base"
     pagecolor="#ffffff"
     bordercolor="#666666"
     borderopacity="1.0"
     inkscape:pageopacity="0.0"
     inkscape:pageshadow="2"
     inkscape:zoom="5.6"
     inkscape:cx="42.270969"
     inkscape:cy="45.009413"
     inkscape:document-units="px"
     inkscape:current-layer="layer1"
     showgrid="false"
     inkscape:window-width="1280"
     inkscape:window-height="916"
     inkscape:window-x="-4"
     inkscape:window-y="43"
     inkscape:window-maximized="1" />
  <metadata
     id="metadata3674">
    <rdf:RDF>
      <cc:Work
         rdf:about="">
        <dc:format>image/svg+xml</dc:format>
        <dc:type
           rdf:resource="http://purl.org/dc/dcmitype/StillImage" />
        <dc:title />
      </cc:Work>
    </rdf:RDF>
  </metadata>
  <g
     inkscape:label="Layer 1"
     inkscape:groupmode="layer"
     id="layer1"
     style="display:inline"
     transform="translate(0,-952.36219)">
    <path
       id="path538"
       d="m 24.354237,1046.7783 51.239885,0 -0.430374,-1.8047 -1.518969,-1.4481 -0.227844,-0.1775 -0.02531,-0.2549 -0.151896,-1.0525 -0.05064,-0.2397 0.189871,-0.2006 c 2.189848,-2.3648 3.139203,-4.9521 2.8987,-7.9253 -0.32911,-3.9965 -3.506287,-8.1962 -5.379681,-10.3486 l -0.13924,-0.1545 0,-0.1853 -0.01215,-0.6023 -0.03848,-0.6334 0.999989,0 0.797458,-0.5405 0.177212,-0.7029 c -0.392399,-1.207 -1.860736,-1.2356 -1.886053,-1.2356 l -0.645561,0 -0.215187,-0.3398 -0.151897,-0.3398 -0.253162,-0.309 c -4.734165,-6.8061 -10.746752,-20.42704 -12.366985,-28.0727 l -0.164554,-0.70279 0.962013,0 8.139141,0 c 0.607588,-0.19304 3.873371,-1.63183 3.658184,-3.75562 -0.240503,-2.76093 -3.632867,-3.91936 -4.240455,-4.02517 l -9.278368,0 -0.164556,-1.06191 0.506324,-0.20079 c 5.303733,-1.96005 8.721412,-6.15899 8.721412,-10.69619 0,-6.53587 -6.898649,-11.84535 -15.354244,-11.84535 -8.468251,0 -15.366902,5.30948 -15.366902,11.84535 0,4.5372 3.41768,8.73614 8.708755,10.69619 l 0.481006,0.18536 -0.07596,1.0812 -9.442924,0 c -0.316451,0.0772 -3.822738,1.06189 -4.101217,4.02516 -0.202529,2.14312 2.860725,3.55253 3.506286,3.75565 l 8.278381,0 0.936698,0 -0.151897,0.70278 c -1.556944,7.33674 -6.341695,19.73203 -10.64544,27.62863 l -0.05064,0.086 -0.746826,0.9846 -0.20253,0.3552 -0.936698,0 c -0.01316,0 -1.493653,0 -1.873394,1.2164 l 0.177214,0.7261 0.797457,0.5405 0.822775,0 0,0.6102 -0.151896,0.5096 -0.01215,0.086 -0.253162,0.3553 -0.848091,1.0232 c -2.139214,2.51 -4.784751,5.647 -5.075888,8.6496 -0.291136,3.1858 0.860749,6.468 3.101228,8.7941 l 0.215188,0.2393 -0.10127,0.2705 -0.253161,0.8301 -0.07596,0.201 -0.215187,0.1543 -1.620234,1.4387 -0.417716,1.8534 z m 52.974043,1.2265 -54.606934,0 0,-0.6178 c 0,-0.1931 0.02531,-1.9501 0.569614,-2.9347 l 1.886053,-1.7863 0.126575,-0.3939 c -2.30377,-2.5292 -3.493628,-6.0138 -3.177177,-9.3639 0.303794,-3.3209 3.08857,-6.6031 5.303733,-9.2289 l 0.797459,-0.9361 -0.999987,-0.7104 -0.518981,-1.8342 c 0.493664,-1.5352 2.253137,-2.1239 3.35439,-2.1532 l 0.544297,-0.7104 c 4.13919,-7.5683 8.683439,-19.27794 10.37962,-26.5861 -3.898686,0 -7.329026,0 -7.468263,0 l -0.113933,0 c -0.721511,-0.085 -5.151837,-1.95003 -4.848044,-5.05851 0.341769,-3.76489 4.860701,-5.17432 5.620187,-5.17432 l 6.037901,0 c -4.4683,-2.4327 -7.240418,-6.4486 -7.240418,-10.73481 0,-7.21085 7.620159,-13.07097 16.974476,-13.07097 9.34166,0 16.96182,5.86012 16.96182,13.07097 0,4.28621 -2.772118,8.30211 -7.253076,10.73481 l 5.91132,0 c 0.79746,0 5.468288,1.40943 5.797398,5.17432 0.316452,3.09921 -4.278429,4.96197 -5.012598,5.05851 l -0.113921,0 c -0.13924,0 -3.379707,0 -7.329026,0 1.784788,7.53985 7.582186,20.5916 12.012513,26.9436 l 0.164554,0.2008 0.164555,0.1854 c 1.088595,0.139 2.556931,0.7413 2.987305,2.1331 l -0.506322,1.8248 -1.316441,0.8303 c 1.97466,2.3068 5.126521,6.593 5.46829,10.744 0.253161,3.1765 -0.734169,5.9567 -3.012623,8.4952 l 0.113933,0.695 1.670867,1.7478 c 0.45569,0.9167 0.607586,2.6257 0.632903,2.8088 l 0.03747,0.6564 z"
       style="fill:#221f1f;stroke:#000000;stroke-width:1.15217102;stroke-opacity:1" />
  </g>
</svg>
