<?xml version="1.0" encoding="UTF-8" standalone="no"?>
<!-- Created with Inkscape (http://www.inkscape.org/) -->

<svg
   xmlns:dc="http://purl.org/dc/elements/1.1/"
   xmlns:cc="http://creativecommons.org/ns#"
   xmlns:rdf="http://www.w3.org/1999/02/22-rdf-syntax-ns#"
   xmlns:svg="http://www.w3.org/2000/svg"
   xmlns="http://www.w3.org/2000/svg"
   xmlns:sodipodi="http://sodipodi.sourceforge.net/DTD/sodipodi-0.dtd"
   xmlns:inkscape="http://www.inkscape.org/namespaces/inkscape"
   width="100"
   height="100"
   id="svg3669"
   version="1.1"
   inkscape:version="0.47 r22583"
   sodipodi:docname="QQueen.svg">
  <defs
     id="defs3671">
    <inkscape:perspective
       sodipodi:type="inkscape:persp3d"
       inkscape:vp_x="0 : 526.18109 : 1"
       inkscape:vp_y="0 : 1000 : 0"
       inkscape:vp_z="744.09448 : 526.18109 : 1"
       inkscape:persp3d-origin="372.04724 : 350.78739 : 1"
       id="perspective3677" />
    <inkscape:perspective
       id="perspective3664"
       inkscape:persp3d-origin="0.5 : 0.33333333 : 1"
       inkscape:vp_z="1 : 0.5 : 1"
       inkscape:vp_y="0 : 1000 : 0"
       inkscape:vp_x="0 : 0.5 : 1"
       sodipodi:type="inkscape:persp3d" />
    <inkscape:perspective
       id="perspective3808"
       inkscape:persp3d-origin="0.5 : 0.33333333 : 1"
       inkscape:vp_z="1 : 0.5 : 1"
       inkscape:vp_y="0 : 1000 : 0"
       inkscape:vp_x="0 : 0.5 : 1"
       sodipodi:type="inkscape:persp3d" />
    <inkscape:perspective
       id="perspective3821"
       inkscape:persp3d-origin="0.5 : 0.33333333 : 1"
       inkscape:vp_z="1 : 0.5 : 1"
       inkscape:vp_y="0 : 1000 : 0"
       inkscape:vp_x="0 : 0.5 : 1"
       sodipodi:type="inkscape:persp3d" />
    <inkscape:perspective
       id="perspective3834"
       inkscape:persp3d-origin="0.5 : 0.33333333 : 1"
       inkscape:vp_z="1 : 0.5 : 1"
       inkscape:vp_y="0 : 1000 : 0"
       inkscape:vp_x="0 : 0.5 : 1"
       sodipodi:type="inkscape:persp3d" />
    <inkscape:perspective
       id="perspective3847"
       inkscape:persp3d-origin="0.5 : 0.33333333 : 1"
       inkscape:vp_z="1 : 0.5 : 1"
       inkscape:vp_y="0 : 1000 : 0"
       inkscape:vp_x="0 : 0.5 : 1"
       sodipodi:type="inkscape:persp3d" />
    <inkscape:perspective
       id="perspective3864"
       inkscape:persp3d-origin="0.5 : 0.33333333 : 1"
       inkscape:vp_z="1 : 0.5 : 1"
       inkscape:vp_y="0 : 1000 : 0"
       inkscape:vp_x="0 : 0.5 : 1"
       sodipodi:type="inkscape:persp3d" />
    <inkscape:perspective
       id="perspective3883"
       inkscape:persp3d-origin="0.5 : 0.33333333 : 1"
       inkscape:vp_z="1 : 0.5 : 1"
       inkscape:vp_y="0 : 1000 : 0"
       inkscape:vp_x="0 : 0.5 : 1"
       sodipodi:type="inkscape:persp3d" />
  </defs>
  <sodipodi:namedview
     id="base"
     pagecolor="#ffffff"
     bordercolor="#666666"
     borderopacity="1.0"
     inkscape:pageopacity="0.0"
     inkscape:pageshadow="2"
     inkscape:zoom="5.6"
     inkscape:cx="42.270969"
     inkscape:cy="45.009413"
     inkscape:document-units="px"
     inkscape:current-layer="layer1"
     showgrid="false"
     inkscape:window-width="1280"
     inkscape:window-height="916"
     inkscape:window-x="-4"
     inkscape:window-y="43"
     inkscape:window-maximized="1" />
  <metadata
     id="metadata3674">
    <rdf:RDF>
      <cc:Work
         rdf:about="">
        <dc:format>image/svg+xml</dc:format>
        <dc:type
           rdf:resource="http://purl.org/dc/dcmitype/StillImage" />
        <dc:title />
      </cc:Work>
    </rdf:RDF>
  </metadata>
  <g
     inkscape:label="Layer 1"
     inkscape:groupmode="layer"
     id="layer1"
     style="display:inline"
     transform="translate(0,-952.36219)">
    <g
       id="g3596"
       transform="matrix(1.249557,0,0,1,-12.477528,0)">
      <path
         style="fill:#221f1f;stroke:#000000;stroke-width:1;stroke-miterlimit:4;stroke-opacity:1;stroke-dasharray:none"
         d="m 50.553421,955.52315 c -3.087257,0 -5.594633,2.37488 -5.594633,5.299 0,2.91638 2.507376,5.299 5.594633,5.299 3.087257,0 5.6028,-2.38262 5.6028,-5.299 0,-2.92412 -2.515543,-5.299 -5.6028,-5.299 z m 0,11.58044 c -3.658971,0 -6.631886,-2.82355 -6.631886,-6.28144 0,-3.46562 2.972915,-6.28144 6.631886,-6.28144 3.658972,0 6.640053,2.81582 6.640053,6.28144 0,3.45789 -2.981081,6.28144 -6.640053,6.28144 z"
         id="path552" />
      <path
         style="fill:#221f1f;stroke:#000000;stroke-width:0.98910689;stroke-miterlimit:4;stroke-opacity:1;stroke-dasharray:none"
         d="m 31.935002,1046.4067 36.10974,0 -0.277768,-1.3618 -0.939507,-1.0593 -0.204241,0 -0.114375,-0.3708 -0.147053,-0.4917 -0.08986,-0.2422 0.163393,-0.2042 c 1.544059,-1.8311 2.205799,-3.8738 2.042406,-6.2269 -0.19607,-2.9054 -2.083253,-5.9696 -3.300528,-7.6644 l -0.457499,0 0.196071,-0.6129 0.130714,-0.4463 0.07353,-0.3708 0.416651,0 0.531026,-0.4161 0.09804,-0.5221 c -0.236919,-0.8928 -1.192766,-0.9306 -1.200935,-0.9306 l -0.392142,0 -0.138884,-0.2799 -0.318615,-0.4994 -0.588213,-0.7566 0.171562,0 c -3.529278,-5.962 -6.846145,-11.6366 -7.851009,-25.28571 l -0.106205,0 0.06536,-0.54476 0.04085,-0.37829 0.02451,-0.46154 0.490177,0 4.33807,0 c 0.220581,-0.0605 1.601248,-0.74903 1.470533,-2.01256 -0.163392,-1.6494 -1.601246,-2.39087 -1.879013,-2.47409 l -3.676331,0 0.106204,-0.56746 c -0.539195,-8.54205 4.15834,-15.74492 7.516055,-17.92394 0.588213,-0.38587 2.410039,-1.79316 1.013034,-3.63926 -0.988525,-1.30893 -2.475396,-1.08951 -2.785843,-1.00629 l -0.735266,0.32534 c -0.751605,0.37073 -1.789147,0.88522 -2.981913,0.88522 -1.28263,0 -2.655127,-0.42369 -4.043963,-1.26352 l -0.04901,-0.0302 -0.130713,-0.0908 c -1.09473,0.71121 -2.557093,1.52834 -4.182848,1.52834 -1.568568,0 -2.981913,-0.74904 -4.191017,-1.54347 -1.070221,0.68851 -2.597941,1.39971 -4.272714,1.39971 -1.192764,0 -2.230308,-0.51449 -2.990082,-0.88522 l -0.710757,-0.32534 c -0.343125,-0.0832 -1.813657,-0.30264 -2.802182,1.00628 -1.397006,1.84611 0.416652,3.2534 1.021203,3.63927 3.374056,2.20172 8.096098,9.44998 7.507885,18.045 l -0.03268,0.4464 -3.978607,0 c -0.155224,0.0454 -1.813657,0.59015 -1.993389,2.3379 -0.122544,1.23327 1.331649,2.04283 1.609417,2.14875 l 4.771059,0 0.367634,0 0.106206,0.34047 0.163391,0.39344 0.261429,0.65068 -0.326785,0 c -0.988525,13.58865 -4.289054,19.21015 -7.744805,25.17985 l -0.07353,0.1059 0.114375,0 -0.531025,0.749 -0.269599,0.4843 -0.138883,0.3026 -0.555534,0 c -0.01634,0 -0.964016,0.038 -1.209105,0.9231 l 0.09804,0.522 0.539195,0.4161 0.506518,0.091 -0.07353,0.4767 -0.07353,0.4389 -0.04901,0.4312 -0.22058,0 -0.400312,0.5599 c -1.356158,1.9142 -3.063609,4.3051 -3.243341,6.5825 -0.187901,2.4514 0.563704,4.9709 2.026067,6.7412 l 0.147054,0.1741 -0.04901,0.2043 -0.07353,0.4842 -0.02451,0.454 -0.392142,0 -0.964015,1.0289 -0.261428,1.3922 z m 37.228977,0.9608 -38.282859,0 0,-0.4841 c 0,-0.1438 0.01635,-1.4906 0.367633,-2.2472 l 1.331649,-1.4602 0.01633,-0.091 c -1.52772,-1.9445 -2.303834,-4.6304 -2.107763,-7.2331 0.196071,-2.527 1.985219,-5.0238 3.423073,-7.0365 l 0.498347,-0.7036 -0.718928,-0.6279 -0.253257,-1.3241 c 0.310445,-1.1273 1.364327,-1.5889 2.083253,-1.6343 l 0.114375,-0.1816 0.07353,-0.1361 0.473838,-0.8172 c 3.602804,-6.1739 6.715432,-11.5155 7.671277,-25.14194 -3.014591,0 -4.346239,0 -4.444276,-0.008 l -0.04085,0 c -0.531026,-0.0529 -2.695976,-1.2711 -2.508075,-3.20044 0.245088,-2.3379 2.532584,-3.208 2.998253,-3.208 l 3.0391,0 c 0.343123,-7.68709 -3.856063,-14.62516 -7.107573,-16.74364 -1.552229,-1.01385 -2.818521,-2.92806 -1.266292,-4.97845 0.972185,-1.2938 2.320172,-1.48295 3.03093,-1.48295 l 0.898659,0.10593 0.931337,0.40099 c 0.694418,0.34047 1.560398,0.77174 2.491735,0.77174 1.560399,0 3.022762,-0.77174 3.962268,-1.41485 l 0.310446,-0.21185 0.310445,0.21185 c 1.135578,0.77173 2.483567,1.5586 3.880572,1.5586 1.31531,0 2.589771,-0.70364 3.561957,-1.33919 l 0.277766,-0.21941 0.179732,-0.12862 0.122545,-0.11349 0.375802,0.24968 0.432991,0.31777 c 1.217273,0.72633 2.36919,1.08951 3.45575,1.08951 0.931338,0 1.797318,-0.43127 2.491736,-0.77174 l 0.947677,-0.40099 0.882319,-0.10593 c 0.718927,0 2.050575,0.18915 3.030931,1.48295 1.552228,2.05039 0.285936,3.9646 -1.266292,4.97845 -3.243341,2.11092 -7.450698,9.05655 -7.099404,16.74364 l 2.589772,0 c 0.531025,0 2.655127,1.03654 2.875707,3.35176 0.20424,1.90664 -1.838165,3.00372 -2.385531,3.05668 l -0.03268,0 c -0.08169,0.008 -1.209104,0.008 -3.929589,0.008 0.972185,13.76264 4.289052,19.38424 7.810161,25.33864 l 0.473838,0.8172 0.08987,0.1361 c 0.710757,0.098 1.650264,0.5675 1.944371,1.6343 l -0.318616,1.3921 -0.841471,0.6432 c 1.282631,1.7705 3.292358,5.0238 3.504768,8.1713 0.171563,2.5195 -0.514686,4.7061 -2.083253,6.6884 l 0.04085,0.1589 1.266292,1.4754 c 0.294107,0.696 0.383973,2.0049 0.392142,2.1487 l 0.03268,0.5145 z"
         id="path554" />
    </g>
  </g>
</svg>
