<?xml version="1.0" encoding="UTF-8" standalone="no"?>
<!-- Created with Inkscape (http://www.inkscape.org/) -->

<svg
   xmlns:dc="http://purl.org/dc/elements/1.1/"
   xmlns:cc="http://creativecommons.org/ns#"
   xmlns:rdf="http://www.w3.org/1999/02/22-rdf-syntax-ns#"
   xmlns:svg="http://www.w3.org/2000/svg"
   xmlns="http://www.w3.org/2000/svg"
   xmlns:sodipodi="http://sodipodi.sourceforge.net/DTD/sodipodi-0.dtd"
   xmlns:inkscape="http://www.inkscape.org/namespaces/inkscape"
   width="100"
   height="100"
   id="svg3669"
   version="1.1"
   inkscape:version="0.47 r22583"
   sodipodi:docname="QRook.svg">
  <defs
     id="defs3671">
    <inkscape:perspective
       sodipodi:type="inkscape:persp3d"
       inkscape:vp_x="0 : 526.18109 : 1"
       inkscape:vp_y="0 : 1000 : 0"
       inkscape:vp_z="744.09448 : 526.18109 : 1"
       inkscape:persp3d-origin="372.04724 : 350.78739 : 1"
       id="perspective3677" />
    <inkscape:perspective
       id="perspective3664"
       inkscape:persp3d-origin="0.5 : 0.33333333 : 1"
       inkscape:vp_z="1 : 0.5 : 1"
       inkscape:vp_y="0 : 1000 : 0"
       inkscape:vp_x="0 : 0.5 : 1"
       sodipodi:type="inkscape:persp3d" />
    <inkscape:perspective
       id="perspective3808"
       inkscape:persp3d-origin="0.5 : 0.33333333 : 1"
       inkscape:vp_z="1 : 0.5 : 1"
       inkscape:vp_y="0 : 1000 : 0"
       inkscape:vp_x="0 : 0.5 : 1"
       sodipodi:type="inkscape:persp3d" />
    <inkscape:perspective
       id="perspective3821"
       inkscape:persp3d-origin="0.5 : 0.33333333 : 1"
       inkscape:vp_z="1 : 0.5 : 1"
       inkscape:vp_y="0 : 1000 : 0"
       inkscape:vp_x="0 : 0.5 : 1"
       sodipodi:type="inkscape:persp3d" />
  </defs>
  <sodipodi:namedview
     id="base"
     pagecolor="#ffffff"
     bordercolor="#666666"
     borderopacity="1.0"
     inkscape:pageopacity="0.0"
     inkscape:pageshadow="2"
     inkscape:zoom="5.6"
     inkscape:cx="42.270969"
     inkscape:cy="45.009413"
     inkscape:document-units="px"
     inkscape:current-layer="layer1"
     showgrid="false"
     inkscape:window-width="1280"
     inkscape:window-height="916"
     inkscape:window-x="-4"
     inkscape:window-y="43"
     inkscape:window-maximized="1" />
  <metadata
     id="metadata3674">
    <rdf:RDF>
      <cc:Work
         rdf:about="">
        <dc:format>image/svg+xml</dc:format>
        <dc:type
           rdf:resource="http://purl.org/dc/dcmitype/StillImage" />
        <dc:title />
      </cc:Work>
    </rdf:RDF>
  </metadata>
  <g
     inkscape:label="Layer 1"
     inkscape:groupmode="layer"
     id="layer1"
     style="display:inline"
     transform="translate(0,-952.36219)">
    <path
       id="path562"
       d="m 22.177438,1046.1402 55.541238,0 -0.654811,-2.048 -1.663873,-2.1283 -0.944664,-1.234 -0.0644,-0.2218 0.161019,-0.186 c 2.791011,-3.541 4.07918,-7.0284 3.875216,-10.3908 -0.22543,-3.4516 -4.798401,-10.0059 -6.311988,-12.1613 -0.57968,-0.8405 -0.611879,-0.9027 -0.64409,-1.0552 l -0.107331,-0.6366 0.783632,0 1.127137,-0.8134 0.246908,-0.9479 c -0.35425,-1.4579 -2.222087,-1.5738 -2.243553,-1.5738 l -2.533382,0 -0.07555,-0.508 c -0.03178,-0.2431 -3.585387,-32.07587 -3.746407,-33.42578 l -0.0644,-0.61523 1.94298,0 2.157677,-1.26978 0.279096,-0.82269 c -0.289829,-1.31486 -2.554848,-2.37861 -3.40289,-2.67406 l -1.019795,-0.36484 0.837309,-0.58661 c 0.05325,0 4.347541,-3.11187 6.623294,-6.99278 1.846359,-3.13834 2.587059,-7.38623 2.823222,-8.96005 l -11.421707,0 0.923185,7.94995 -10.562923,0 0.923183,-7.94995 -10.079866,0 0.912447,7.94995 -10.55219,0 0.912448,-7.94995 -11.432436,0 c 0.171755,1.42217 0.783632,5.16857 2.84469,8.97793 2.265019,4.19424 5.453219,6.36684 6.204646,6.83183 l 0.826571,0 -0.246898,0.73325 -0.944652,0.57946 c -1.202284,0.32907 -2.468976,0.82268 -2.490446,2.4058 l 0.644081,1.40356 2.651466,0.84056 0.450857,0 0.182489,0.34338 0.322041,0.54369 0.504529,0.82268 -0.515264,0 -3.606853,31.48578 -0.03263,0.072 -0.397183,0.8491 -0.193224,0.3363 -1.867835,0 c -0.02147,0 -1.760487,0.1144 -2.136201,1.6274 l 0.257632,0.9751 1.041265,0.7333 0.708488,0 0.783632,0 -0.128817,0.651 c -0.02147,0.1573 -0.05324,0.1931 -0.751426,1.0637 -1.728284,2.1734 -6.999013,8.7455 -7.256645,12.1435 -0.257632,3.5232 0.944652,6.9033 3.69273,10.3372 l 0.18249,0.2217 -0.09661,0.2576 -0.364979,0.4649 -2.071793,2.5131 -0.740694,2.4051 z m 57.226578,1.1447 -58.879718,0 0.139551,-0.6796 c 0.02147,-0.079 0.48306,-2.1375 0.966121,-3.255 0.354245,-0.7962 1.320366,-1.8514 2.232814,-2.7992 -2.694405,-3.4874 -3.907425,-7.0729 -3.639057,-10.6855 0.279101,-3.7021 5.506891,-10.2299 7.482072,-12.698 l 0.02147,0 -1.545794,-0.9929 -0.590408,-2.0117 c 0.472326,-1.9135 2.54412,-2.5216 3.467302,-2.5216 l 0.966121,0 0.182491,-0.3792 3.628322,-31.7182 -0.06441,-0.11446 c -0.729957,-0.0715 -2.179139,-0.30761 -3.188199,-1.14459 -0.68702,-0.58661 -1.041264,-1.32344 -1.03053,-2.21766 0.02147,-2.04741 1.577998,-2.87008 2.70514,-3.26354 -1.363305,-0.96575 -3.961098,-3.15694 -5.925544,-6.81393 -2.715875,-5.01692 -3.02718,-9.78274 -3.037915,-9.97946 l -0.03178,-0.60092 14.395207,0 -0.923182,7.94924 7.557215,0 -0.912448,-7.94924 13.074841,0 -0.923183,7.94924 7.557219,0 -0.923186,-7.94924 14.427403,0 -0.0644,0.61522 c -0.02147,0.24323 -0.622612,5.89254 -3.027185,9.97947 -1.824893,3.12976 -4.809134,5.6958 -6.204645,6.78675 1.127137,0.53652 2.952042,1.61888 3.284814,3.12117 l -0.622612,1.8242 c -0.837309,0.89422 -2.426039,1.59171 -3.080851,1.61818 l -0.51527,0 c 0.472326,4.20281 3.177472,28.44547 3.617587,32.28117 l 1.298902,0 c 0.97685,0 3.123794,0.6081 3.585375,2.4774 l -0.611867,1.9937 -1.137882,0.85 0.203963,0.2646 c 1.706818,2.4502 6.226112,8.9508 6.473008,12.68 0.214697,3.5053 -1.084205,7.1265 -3.864483,10.775 l 0.547469,0.6295 1.889303,2.4502 c 0.429394,1.0465 0.858776,2.7992 0.858776,2.8793 l 0.182485,0.6796 z"
       style="fill:#221f1f;stroke:#000000;stroke-width:1.09452748;stroke-linecap:butt;stroke-linejoin:bevel;stroke-opacity:1" />
  </g>
</svg>
