<?xml version="1.0" encoding="UTF-8" standalone="no"?>
<!-- Created with Inkscape (http://www.inkscape.org/) -->

<svg
   xmlns:dc="http://purl.org/dc/elements/1.1/"
   xmlns:cc="http://creativecommons.org/ns#"
   xmlns:rdf="http://www.w3.org/1999/02/22-rdf-syntax-ns#"
   xmlns:svg="http://www.w3.org/2000/svg"
   xmlns="http://www.w3.org/2000/svg"
   xmlns:sodipodi="http://sodipodi.sourceforge.net/DTD/sodipodi-0.dtd"
   xmlns:inkscape="http://www.inkscape.org/namespaces/inkscape"
   width="100"
   height="100"
   id="svg3669"
   version="1.1"
   inkscape:version="0.47 r22583"
   sodipodi:docname="QKing.svg">
  <defs
     id="defs3671">
    <inkscape:perspective
       sodipodi:type="inkscape:persp3d"
       inkscape:vp_x="0 : 526.18109 : 1"
       inkscape:vp_y="0 : 1000 : 0"
       inkscape:vp_z="744.09448 : 526.18109 : 1"
       inkscape:persp3d-origin="372.04724 : 350.78739 : 1"
       id="perspective3677" />
    <inkscape:perspective
       id="perspective3664"
       inkscape:persp3d-origin="0.5 : 0.33333333 : 1"
       inkscape:vp_z="1 : 0.5 : 1"
       inkscape:vp_y="0 : 1000 : 0"
       inkscape:vp_x="0 : 0.5 : 1"
       sodipodi:type="inkscape:persp3d" />
    <inkscape:perspective
       id="perspective3717"
       inkscape:persp3d-origin="0.5 : 0.33333333 : 1"
       inkscape:vp_z="1 : 0.5 : 1"
       inkscape:vp_y="0 : 1000 : 0"
       inkscape:vp_x="0 : 0.5 : 1"
       sodipodi:type="inkscape:persp3d" />
    <inkscape:perspective
       id="perspective3730"
       inkscape:persp3d-origin="0.5 : 0.33333333 : 1"
       inkscape:vp_z="1 : 0.5 : 1"
       inkscape:vp_y="0 : 1000 : 0"
       inkscape:vp_x="0 : 0.5 : 1"
       sodipodi:type="inkscape:persp3d" />
    <inkscape:perspective
       id="perspective3743"
       inkscape:persp3d-origin="0.5 : 0.33333333 : 1"
       inkscape:vp_z="1 : 0.5 : 1"
       inkscape:vp_y="0 : 1000 : 0"
       inkscape:vp_x="0 : 0.5 : 1"
       sodipodi:type="inkscape:persp3d" />
    <inkscape:perspective
       id="perspective3774"
       inkscape:persp3d-origin="0.5 : 0.33333333 : 1"
       inkscape:vp_z="1 : 0.5 : 1"
       inkscape:vp_y="0 : 1000 : 0"
       inkscape:vp_x="0 : 0.5 : 1"
       sodipodi:type="inkscape:persp3d" />
  </defs>
  <sodipodi:namedview
     id="base"
     pagecolor="#ffffff"
     bordercolor="#666666"
     borderopacity="1.0"
     inkscape:pageopacity="0.0"
     inkscape:pageshadow="2"
     inkscape:zoom="5.6"
     inkscape:cx="42.270969"
     inkscape:cy="57.632741"
     inkscape:document-units="px"
     inkscape:current-layer="layer1"
     showgrid="false"
     inkscape:window-width="1280"
     inkscape:window-height="916"
     inkscape:window-x="-4"
     inkscape:window-y="43"
     inkscape:window-maximized="1" />
  <metadata
     id="metadata3674">
    <rdf:RDF>
      <cc:Work
         rdf:about="">
        <dc:format>image/svg+xml</dc:format>
        <dc:type
           rdf:resource="http://purl.org/dc/dcmitype/StillImage" />
        <dc:title />
      </cc:Work>
    </rdf:RDF>
  </metadata>
  <g
     inkscape:label="Layer 1"
     inkscape:groupmode="layer"
     id="layer1"
     style="display:inline"
     transform="translate(0,-952.36219)">
    <g
       transform="matrix(9.1078618,0,0,6.6073744,-4476.4198,-1690.9584)"
       id="g3762">
      <path
         style="fill:#221f1f;stroke:none"
         d="m 499.162,413.946 -0.006,-0.118 c 0.179,-0.251 0.281,-0.552 0.259,-0.923 -0.025,-0.399 -0.238,-0.834 -0.46,-1.172 l -0.021,-0.058 0.027,-0.024 c 0.052,-0.002 0.177,-0.102 0.145,-0.226 -0.038,-0.154 -0.177,-0.188 -0.225,-0.188 l -0.041,0 0.001,-0.04 -0.002,-0.021 c -0.476,-1.09 -0.931,-1.697 -1.071,-3.707 l 0.038,-0.173 c 0.257,0 0.464,0 0.473,0 0.033,-0.004 0.256,-0.121 0.234,-0.341 -0.024,-0.273 -0.254,-0.39 -0.286,-0.39 l -0.22,0 -0.061,-1.275 c 0,0 0.758,-1.114 0.877,-1.306 0.086,-0.139 0.163,-0.318 0.163,-0.493 0,-0.404 -0.319,-0.73 -0.713,-0.73 l -0.404,0 0,-0.179 c 0,-0.115 -0.092,-0.208 -0.205,-0.208 l -1.367,0 c -0.114,0 -0.205,0.093 -0.205,0.208 l 0,0.179 -0.405,0 c -0.393,0 -0.714,0.326 -0.714,0.73 0,0.175 0.08,0.354 0.165,0.493 0.119,0.192 0.886,1.338 0.886,1.338 l -0.071,1.243 -0.214,0 c -0.032,0 -0.276,0.098 -0.301,0.371 -0.021,0.22 0.215,0.356 0.248,0.36 0.01,0 0.219,0 0.472,0 l 0.04,0.074 c -0.131,2.089 -0.522,2.699 -1.007,3.806 l 0.002,0.03 -0.009,0.031 -0.024,0 c -0.049,0 -0.188,0.034 -0.226,0.188 -0.031,0.114 0.076,0.208 0.132,0.223 l 0.002,0.041 -0.008,0.03 c -0.196,0.31 -0.486,0.71 -0.515,1.108 -0.028,0.399 0.092,0.784 0.29,1.043 l 0.008,0 -0.02,0.07 -0.017,0 c 0,0 -0.125,0.093 -0.167,0.193 -0.042,0.101 -0.043,0.301 -0.043,0.301 l 4.767,0 c 0,0 -0.012,-0.199 -0.048,-0.294 l -0.153,-0.194 z"
         id="path512" />
      <path
         style="fill:#221f1f;stroke:none"
         d="m 496.362,401.756 c 0.183,-0.186 0.401,-0.268 0.485,-0.181 0.084,0.086 0.004,0.308 -0.18,0.495 l -0.086,0.079 c 0.127,0.079 0.277,0.125 0.436,0.125 0.158,0 0.305,-0.045 0.432,-0.121 l -0.093,-0.084 c -0.183,-0.187 -0.263,-0.408 -0.179,-0.494 0.085,-0.088 0.301,-0.005 0.485,0.181 l 0.081,0.095 c 0.075,-0.129 0.118,-0.279 0.118,-0.44 0,-0.164 -0.044,-0.316 -0.12,-0.446 l -0.072,0.082 c -0.184,0.188 -0.401,0.27 -0.485,0.183 -0.085,-0.086 -0.005,-0.308 0.178,-0.495 l 0.078,-0.071 c -0.125,-0.074 -0.269,-0.116 -0.423,-0.116 -0.154,0 -0.297,0.042 -0.422,0.116 l 0.087,0.08 c 0.184,0.187 0.264,0.41 0.18,0.495 -0.085,0.087 -0.302,0.004 -0.485,-0.183 l -0.081,-0.093 c -0.077,0.13 -0.122,0.284 -0.122,0.448 0,0.157 0.04,0.305 0.112,0.431 l 0.076,-0.086 z"
         id="path514" />
    </g>
  </g>
</svg>
