<?xml version="1.0" encoding="UTF-8" standalone="no"?>
<!-- Created with Inkscape (http://www.inkscape.org/) -->

<svg
   xmlns:dc="http://purl.org/dc/elements/1.1/"
   xmlns:cc="http://creativecommons.org/ns#"
   xmlns:rdf="http://www.w3.org/1999/02/22-rdf-syntax-ns#"
   xmlns:svg="http://www.w3.org/2000/svg"
   xmlns="http://www.w3.org/2000/svg"
   xmlns:sodipodi="http://sodipodi.sourceforge.net/DTD/sodipodi-0.dtd"
   xmlns:inkscape="http://www.inkscape.org/namespaces/inkscape"
   width="100"
   height="100"
   id="svg3669"
   version="1.1"
   inkscape:version="0.47 r22583"
   sodipodi:docname="QQueen.svg">
  <defs
     id="defs3671">
    <inkscape:perspective
       sodipodi:type="inkscape:persp3d"
       inkscape:vp_x="0 : 526.18109 : 1"
       inkscape:vp_y="0 : 1000 : 0"
       inkscape:vp_z="744.09448 : 526.18109 : 1"
       inkscape:persp3d-origin="372.04724 : 350.78739 : 1"
       id="perspective3677" />
    <inkscape:perspective
       id="perspective3664"
       inkscape:persp3d-origin="0.5 : 0.33333333 : 1"
       inkscape:vp_z="1 : 0.5 : 1"
       inkscape:vp_y="0 : 1000 : 0"
       inkscape:vp_x="0 : 0.5 : 1"
       sodipodi:type="inkscape:persp3d" />
    <inkscape:perspective
       id="perspective3717"
       inkscape:persp3d-origin="0.5 : 0.33333333 : 1"
       inkscape:vp_z="1 : 0.5 : 1"
       inkscape:vp_y="0 : 1000 : 0"
       inkscape:vp_x="0 : 0.5 : 1"
       sodipodi:type="inkscape:persp3d" />
    <inkscape:perspective
       id="perspective3730"
       inkscape:persp3d-origin="0.5 : 0.33333333 : 1"
       inkscape:vp_z="1 : 0.5 : 1"
       inkscape:vp_y="0 : 1000 : 0"
       inkscape:vp_x="0 : 0.5 : 1"
       sodipodi:type="inkscape:persp3d" />
    <inkscape:perspective
       id="perspective3743"
       inkscape:persp3d-origin="0.5 : 0.33333333 : 1"
       inkscape:vp_z="1 : 0.5 : 1"
       inkscape:vp_y="0 : 1000 : 0"
       inkscape:vp_x="0 : 0.5 : 1"
       sodipodi:type="inkscape:persp3d" />
    <inkscape:perspective
       id="perspective3774"
       inkscape:persp3d-origin="0.5 : 0.33333333 : 1"
       inkscape:vp_z="1 : 0.5 : 1"
       inkscape:vp_y="0 : 1000 : 0"
       inkscape:vp_x="0 : 0.5 : 1"
       sodipodi:type="inkscape:persp3d" />
    <inkscape:perspective
       id="perspective3793"
       inkscape:persp3d-origin="0.5 : 0.33333333 : 1"
       inkscape:vp_z="1 : 0.5 : 1"
       inkscape:vp_y="0 : 1000 : 0"
       inkscape:vp_x="0 : 0.5 : 1"
       sodipodi:type="inkscape:persp3d" />
  </defs>
  <sodipodi:namedview
     id="base"
     pagecolor="#ffffff"
     bordercolor="#666666"
     borderopacity="1.0"
     inkscape:pageopacity="0.0"
     inkscape:pageshadow="2"
     inkscape:zoom="5.6"
     inkscape:cx="42.270969"
     inkscape:cy="57.632741"
     inkscape:document-units="px"
     inkscape:current-layer="layer1"
     showgrid="false"
     inkscape:window-width="1280"
     inkscape:window-height="916"
     inkscape:window-x="-4"
     inkscape:window-y="43"
     inkscape:window-maximized="1" />
  <metadata
     id="metadata3674">
    <rdf:RDF>
      <cc:Work
         rdf:about="">
        <dc:format>image/svg+xml</dc:format>
        <dc:type
           rdf:resource="http://purl.org/dc/dcmitype/StillImage" />
        <dc:title />
      </cc:Work>
    </rdf:RDF>
  </metadata>
  <g
     inkscape:label="Layer 1"
     inkscape:groupmode="layer"
     id="layer1"
     style="display:inline"
     transform="translate(0,-952.36219)">
    <g
       transform="matrix(9.6127953,0,0,7.0722459,-4847.9635,-1883.6241)"
       id="g3781">
      <path
         style="fill:#221f1f;stroke:none"
         d="m 509.599,403.208 c 0.447,0 0.81,-0.363 0.81,-0.809 0,-0.448 -0.363,-0.811 -0.81,-0.811 -0.449,0 -0.811,0.363 -0.811,0.811 0,0.446 0.362,0.809 0.811,0.809 z"
         id="path516" />
      <path
         style="fill:#221f1f;stroke:none"
         d="m 511.781,413.952 -0.002,0 -0.021,-0.076 c 0.195,-0.253 0.307,-0.557 0.284,-0.938 -0.026,-0.395 -0.243,-0.827 -0.47,-1.16 l -0.005,0 0.017,-0.068 0.004,0 c 0.052,-0.002 0.178,-0.098 0.145,-0.219 -0.038,-0.152 -0.177,-0.185 -0.226,-0.185 l -0.007,0 -0.049,-0.081 0.004,0 c -0.491,-0.9 -0.959,-1.693 -1.092,-3.754 l 0.004,-0.059 0.583,0 c 0.036,-0.004 0.279,-0.131 0.256,-0.364 -0.026,-0.292 -0.278,-0.417 -0.312,-0.417 l -0.411,0 0.002,-0.01 c -0.071,-1.156 0.51,-2.19 0.965,-2.51 0.148,-0.104 0.348,-0.336 0.152,-0.616 -0.141,-0.202 -0.353,-0.197 -0.444,-0.171 -0.091,0.024 -0.268,0.171 -0.475,0.171 -0.179,0 -0.352,-0.076 -0.498,-0.169 l -0.057,-0.046 -0.005,0.003 -0.004,-0.004 -0.03,0.028 c -0.15,0.104 -0.329,0.208 -0.52,0.208 -0.207,0 -0.398,-0.122 -0.555,-0.236 -0.156,0.114 -0.355,0.216 -0.564,0.216 -0.207,0 -0.384,-0.147 -0.475,-0.171 -0.09,-0.026 -0.302,-0.031 -0.444,0.171 -0.195,0.28 0.006,0.512 0.151,0.616 0.458,0.321 1.04,1.36 0.967,2.52 l -0.468,0 c -0.035,0 -0.3,0.106 -0.327,0.398 -0.022,0.231 0.235,0.379 0.271,0.383 l 0.64,0 0.021,0.059 -0.006,0 c -0.133,2.061 -0.589,2.827 -1.087,3.754 l 0.002,0 -0.043,0.081 -0.027,0 c -0.05,0 -0.189,0.033 -0.226,0.185 -0.032,0.117 0.085,0.211 0.14,0.218 l -0.012,0.069 -0.003,0 c -0.195,0.302 -0.485,0.695 -0.514,1.086 -0.028,0.384 0.088,0.756 0.283,1.01 l -0.011,0.078 -0.011,0 c 0,0 -0.125,0.091 -0.167,0.189 -0.042,0.1 -0.043,0.294 -0.043,0.294 l 4.929,0 c 0,0 -0.012,-0.194 -0.047,-0.287 -0.037,-0.093 -0.162,-0.196 -0.162,-0.196 z"
         id="path518" />
    </g>
  </g>
</svg>
