<?xml version="1.0" encoding="UTF-8" standalone="no"?>
<!-- Created with Inkscape (http://www.inkscape.org/) -->

<svg
   xmlns:dc="http://purl.org/dc/elements/1.1/"
   xmlns:cc="http://creativecommons.org/ns#"
   xmlns:rdf="http://www.w3.org/1999/02/22-rdf-syntax-ns#"
   xmlns:svg="http://www.w3.org/2000/svg"
   xmlns="http://www.w3.org/2000/svg"
   xmlns:sodipodi="http://sodipodi.sourceforge.net/DTD/sodipodi-0.dtd"
   xmlns:inkscape="http://www.inkscape.org/namespaces/inkscape"
   width="100"
   height="100"
   id="svg3669"
   version="1.1"
   inkscape:version="0.47 r22583"
   sodipodi:docname="pawn.svg">
  <defs
     id="defs3671">
    <inkscape:perspective
       sodipodi:type="inkscape:persp3d"
       inkscape:vp_x="0 : 526.18109 : 1"
       inkscape:vp_y="0 : 1000 : 0"
       inkscape:vp_z="744.09448 : 526.18109 : 1"
       inkscape:persp3d-origin="372.04724 : 350.78739 : 1"
       id="perspective3677" />
    <inkscape:perspective
       id="perspective3664"
       inkscape:persp3d-origin="0.5 : 0.33333333 : 1"
       inkscape:vp_z="1 : 0.5 : 1"
       inkscape:vp_y="0 : 1000 : 0"
       inkscape:vp_x="0 : 0.5 : 1"
       sodipodi:type="inkscape:persp3d" />
    <inkscape:perspective
       id="perspective3717"
       inkscape:persp3d-origin="0.5 : 0.33333333 : 1"
       inkscape:vp_z="1 : 0.5 : 1"
       inkscape:vp_y="0 : 1000 : 0"
       inkscape:vp_x="0 : 0.5 : 1"
       sodipodi:type="inkscape:persp3d" />
  </defs>
  <sodipodi:namedview
     id="base"
     pagecolor="#ffffff"
     bordercolor="#666666"
     borderopacity="1.0"
     inkscape:pageopacity="0.0"
     inkscape:pageshadow="2"
     inkscape:zoom="5.6"
     inkscape:cx="42.270969"
     inkscape:cy="57.632741"
     inkscape:document-units="px"
     inkscape:current-layer="layer1"
     showgrid="false"
     inkscape:window-width="1280"
     inkscape:window-height="916"
     inkscape:window-x="-4"
     inkscape:window-y="43"
     inkscape:window-maximized="1" />
  <metadata
     id="metadata3674">
    <rdf:RDF>
      <cc:Work
         rdf:about="">
        <dc:format>image/svg+xml</dc:format>
        <dc:type
           rdf:resource="http://purl.org/dc/dcmitype/StillImage" />
        <dc:title></dc:title>
      </cc:Work>
    </rdf:RDF>
  </metadata>
  <g
     inkscape:label="Layer 1"
     inkscape:groupmode="layer"
     id="layer1"
     style="display:inline"
     transform="translate(0,-952.36219)">
    <path
       id="path526"
       d="m 71.22511,1046.1921 c 1.851123,-2.8225 3.584981,-6.6506 3.342073,-10.8636 -0.226155,-4.4225 -5.821406,-13.2095 -5.85491,-13.4439 l 0.008,0 c 0.485816,0 2.018647,-1.1138 1.70873,-2.4794 -0.343421,-1.6833 -1.993517,-2.0438 -2.445828,-2.0438 l -1.633344,0 -3.157799,-33.88108 1.03864,0 c 0.477439,0 2.889762,-1.25641 2.588221,-2.80633 -0.343421,-1.92652 -3.21643,-3.13267 -3.21643,-3.13267 0,0 3.735751,-3.17423 5.737645,-7.27049 2.001892,-4.08754 2.496083,-9.90861 2.496083,-9.90861 l -10.905712,0 0.770603,8.04911 -7.655777,0 0.787356,-8.04911 -9.783312,0 0.778979,8.04911 -7.655776,0 0.787355,-8.04911 -10.91409,0 c 0,0 0.226156,4.86618 2.496086,9.90861 2.26993,5.04243 5.578497,7.27049 5.578497,7.27049 l 0.117267,0 c -0.07538,0.28814 -2.87301,0.38864 -2.906515,3.19163 -0.0335,2.58789 2.906515,2.85593 3.350449,2.85593 l 0.284788,0.58298 -0.01675,0 -3.09079,32.34864 -0.32667,0.8376 -1.206161,0 c -0.460687,0 -2.010269,0.4087 -2.362067,2.1027 -0.301539,1.3482 1.139153,2.3955 1.616592,2.4204 l 0.628209,0 c -0.0335,0.2344 -6.499872,9.0797 -6.767908,13.444 -0.276412,4.3468 1.315052,7.9988 3.208056,10.8299 -0.01675,0.067 -1.641721,1.9265 -2.043775,2.9987 -0.402053,1.1057 -0.795731,3.2084 -0.795731,3.2084 l 48.321856,0 c 0,0 -0.368548,-1.8012 -0.720346,-2.8399 -0.343421,-1.0299 -2.119159,-2.9986 -2.186169,-3.3337 z"
       style="fill:#221f1f;stroke:none" />
  </g>
</svg>
